<svg xmlns="http://www.w3.org/2000/svg" width="158.98" height="158.98" viewBox="0 0 158.98 158.98"><defs><style>.a{fill:#ffedb9;}.b{fill:#ffd586;}.c{fill:#e7b27e;}</style></defs><path class="a" d="M258.089.676c.355.026.709.06,1.063.091C258.8.736,258.444.7,258.089.676Z" transform="translate(-172.608 -0.452)"/><path class="a" d="M246.08.077c.253.006.505.019.758.028C246.585.1,246.333.083,246.08.077Z" transform="translate(-164.576 -0.051)"/><path class="a" d="M252.11.3c.317.016.632.038.947.058C252.742.342,252.427.319,252.11.3Z" transform="translate(-168.609 -0.203)"/><path class="a" d="M.1,246.636c-.007-.221-.018-.441-.023-.663C.081,246.195.092,246.414.1,246.636Z" transform="translate(-0.051 -164.505)"/><path class="a" d="M1.253,264.534c-.031-.288-.063-.576-.091-.864C1.19,263.959,1.222,264.246,1.253,264.534Z" transform="translate(-0.777 -176.34)"/><path class="a" d="M120.7,8.525a79.435,79.435,0,0,1,33.6,18.972,78.7,78.7,0,0,0-20.449.141c.149.194.295.393.434.6,3.021,4.462,2.656,9.985-.815,12.334s-8.733.637-11.754-3.826a11.6,11.6,0,0,1-2.031-5.827,79.128,79.128,0,0,0-17,7.983A10.6,10.6,0,0,1,86.35,52.4a79.444,79.444,0,0,0,3.689,111.682,79.54,79.54,0,0,1-59.9-40.311A79.5,79.5,0,1,0,120.7,8.525ZM81.864,67.412a2.687,2.687,0,1,1-.769,1.881A2.731,2.731,0,0,1,81.864,67.412Zm-1.537,67.354a2.688,2.688,0,1,1,.768-1.881A2.793,2.793,0,0,1,80.327,134.766Zm.768-29.7a14.573,14.573,0,1,1,14.573,14.573A14.573,14.573,0,0,1,81.1,105.064Zm27.913,46.008c-6.51,1.743-12.866-.87-14.2-5.837s2.869-10.406,9.379-12.15,12.866.87,14.2,5.837S115.519,149.329,109.009,151.072Zm19.012-48.1a2.688,2.688,0,1,1,.768-1.881A2.793,2.793,0,0,1,128.021,102.971ZM123.49,77.242a7.949,7.949,0,1,1,7.949-7.949A7.949,7.949,0,0,1,123.49,77.242Zm21.992-23.079a2.651,2.651,0,1,1,1.855,4.531,2.736,2.736,0,0,1-1.881-.768,2.78,2.78,0,0,1-.768-1.881A2.645,2.645,0,0,1,145.482,54.164Zm1.808,68.313c-2.979,2.979-7.205,3.583-9.439,1.348s-1.631-6.461,1.348-9.439,7.205-3.583,9.439-1.349S150.268,119.5,147.289,122.476Zm1.468-28.132c-4.075-.672-6.652-5.621-5.757-11.054s4.925-9.293,9-8.622,6.652,5.621,5.757,11.054S152.833,95.016,148.758,94.345Z" transform="translate(-20.153 -5.701)"/><path class="a" d="M.341,252.7c-.016-.263-.033-.524-.046-.788C.308,252.174.326,252.436.341,252.7Z" transform="translate(-0.197 -168.476)"/><path class="a" d="M298.142,7.107q.862.215,1.716.448Q299,7.322,298.142,7.107Z" transform="translate(-199.395 -4.753)"/><path class="a" d="M287.051,4.624q.765.152,1.523.32C288.068,4.833,287.56,4.725,287.051,4.624Z" transform="translate(-191.978 -3.092)"/><path class="a" d="M264.009,1.192c.388.039.774.084,1.161.128C264.784,1.276,264.4,1.231,264.009,1.192Z" transform="translate(-176.567 -0.797)"/><path class="a" d="M.727,258.649c-.024-.279-.048-.558-.069-.838C.679,258.091.7,258.37.727,258.649Z" transform="translate(-0.44 -172.422)"/><path class="a" d="M292.635,5.8q.811.182,1.616.381Q293.446,5.988,292.635,5.8Z" transform="translate(-195.712 -3.882)"/><path class="a" d="M269.87,1.849c.419.052.836.111,1.253.169C270.706,1.96,270.289,1.9,269.87,1.849Z" transform="translate(-180.487 -1.237)"/><path class="a" d="M275.664,2.642c.449.067.9.14,1.341.215C276.559,2.782,276.113,2.709,275.664,2.642Z" transform="translate(-184.362 -1.767)"/><path class="a" d="M281.394,3.568c.479.083.956.173,1.431.265C282.35,3.741,281.873,3.651,281.394,3.568Z" transform="translate(-188.194 -2.386)"/><path class="a" d="M3.658,281.876q-.083-.451-.16-.9Q3.576,281.425,3.658,281.876Z" transform="translate(-2.339 -187.912)"/><path class="a" d="M1.918,270.368c-.039-.293-.078-.587-.114-.881C1.84,269.781,1.879,270.075,1.918,270.368Z" transform="translate(-1.207 -180.231)"/><path class="a" d="M11.237,312.444q-.773-2.147-1.422-4.351Q10.466,310.3,11.237,312.444Z" transform="translate(-6.564 -206.05)"/><path class="a" d="M16.839,328.433c-.172-.419-.343-.839-.508-1.262C16.5,327.594,16.667,328.014,16.839,328.433Z" transform="translate(-10.922 -218.809)"/><path class="a" d="M18.947,333.568c-.182-.415-.362-.832-.537-1.251C18.585,332.736,18.765,333.152,18.947,333.568Z" transform="translate(-12.312 -222.251)"/><path class="a" d="M14.856,323.263c-.168-.437-.334-.874-.494-1.314C14.522,322.389,14.689,322.826,14.856,323.263Z" transform="translate(-9.605 -215.317)"/><path class="a" d="M4.727,287.547c-.064-.3-.124-.61-.184-.915C4.6,286.938,4.664,287.243,4.727,287.547Z" transform="translate(-3.038 -191.697)"/><path class="a" d="M7.249,298.7c-.082-.317-.16-.635-.238-.954C7.09,298.066,7.167,298.385,7.249,298.7Z" transform="translate(-4.689 -199.132)"/><path class="a" d="M5.926,293.161c-.073-.308-.14-.618-.209-.928C5.786,292.543,5.854,292.853,5.926,293.161Z" transform="translate(-3.823 -195.443)"/><path class="a" d="M2.721,276.146q-.071-.446-.137-.894Q2.65,275.7,2.721,276.146Z" transform="translate(-1.728 -184.086)"/><path class="a" d="M8.682,304.125c-.1-.335-.185-.673-.277-1.009C8.5,303.453,8.586,303.79,8.682,304.125Z" transform="translate(-5.621 -202.722)"/><path class="a" d="M23.491,343.627q-.316-.639-.621-1.284Q23.175,342.989,23.491,343.627Z" transform="translate(-15.295 -228.956)"/><path class="a" d="M28.416,353.319q-.383-.691-.752-1.39Q28.033,352.628,28.416,353.319Z" transform="translate(-18.501 -235.367)"/><path class="a" d="M25.912,348.529q-.346-.659-.679-1.326Q25.567,347.87,25.912,348.529Z" transform="translate(-16.876 -232.207)"/><path class="a" d="M21.167,338.636q-.292-.628-.575-1.26Q20.873,338.009,21.167,338.636Z" transform="translate(-13.772 -225.634)"/><path class="b" d="M69.885,158.382A79.444,79.444,0,0,1,66.2,46.7,10.6,10.6,0,0,0,82.523,33.2a79.113,79.113,0,0,1,17-7.983,11.6,11.6,0,0,0,2.031,5.827c3.021,4.462,8.283,6.175,11.754,3.826s3.836-7.871.815-12.334c-.14-.206-.285-.4-.434-.6a78.735,78.735,0,0,1,20.449-.141,79.435,79.435,0,0,0-33.6-18.972l-.078-.021q-.855-.234-1.716-.448L98.539,2.3q-.8-.2-1.616-.381L96.6,1.852q-.759-.167-1.523-.32l-.442-.085c-.476-.092-.953-.182-1.431-.265-.185-.032-.371-.061-.556-.092C92.2,1.015,91.751.942,91.3.875c-.222-.033-.444-.062-.667-.093C90.219.723,89.8.664,89.383.612c-.259-.032-.52-.059-.78-.089C88.217.479,87.831.434,87.442.4c-.3-.03-.6-.053-.9-.08C86.19.284,85.837.251,85.481.224S84.793.18,84.448.159C84.133.139,83.818.117,83.5.1c-.412-.021-.826-.033-1.24-.047-.253-.009-.5-.022-.758-.028Q80.5,0,79.49,0A79.49,79.49,0,0,0,0,79.49q0,.992.025,1.978c.005.222.016.442.023.663.014.435.028.87.05,1.3.013.263.031.525.046.788.023.389.045.779.074,1.167.021.28.045.558.069.838.031.368.062.736.1,1.1.028.289.06.576.091.864.039.355.078.709.122,1.063.036.294.075.588.114.881q.069.515.144,1.028.066.448.137.894.079.5.166,1c.052.3.1.6.16.9.06.325.123.648.186.971.06.306.121.611.184.915s.135.627.2.94.137.62.209.928.145.6.219.9c.078.318.156.637.238.954.072.276.148.549.223.824.092.337.181.674.277,1.009.061.214.127.426.19.639q.651,2.2,1.422,4.351c.028.079.055.159.084.238.16.44.327.877.494,1.314.053.138.1.278.158.416.165.423.336.843.508,1.262.061.147.12.3.181.442.175.419.355.836.537,1.251.062.141.123.284.186.425q.282.633.575,1.26c.06.129.119.257.18.385q.305.645.621,1.284.08.163.162.325.334.667.679,1.326l.126.239q.37.7.752,1.39l.067.119A79.536,79.536,0,0,0,69.885,158.382ZM102.37,18.71c3.308-2.239,8.221-.757,11.292,3.246a78.965,78.965,0,0,0-14.106,3.268A7.145,7.145,0,0,1,102.37,18.71ZM67.01,11.367a2.65,2.65,0,0,1,4.531,1.881A2.66,2.66,0,0,1,67.01,15.13a2.729,2.729,0,0,1-.768-1.881A2.68,2.68,0,0,1,67.01,11.367ZM63.606,39.2a10.6,10.6,0,0,1,10.04-10.04q.271-.013.545-.014a10.537,10.537,0,0,1,8.3,4.085A79.85,79.85,0,0,0,66.232,46.676a10.511,10.511,0,0,1-2.64-6.932Q63.592,39.471,63.606,39.2ZM34.512,33.187c3.115-3.115,7.849-3.43,10.574-.7s2.41,7.46-.7,10.574-7.849,3.43-10.574.7S31.4,36.3,34.512,33.187Zm5.233,62.167a2.65,2.65,0,1,1-.769-1.881A2.792,2.792,0,0,1,39.745,95.355ZM15.9,74.191c0-5.853,4.152-10.6,9.274-10.6s9.274,4.745,9.274,10.6-4.152,10.6-9.274,10.6S15.9,80.044,15.9,74.191Zm9.634,33.481c3.1-3.1,8.976-2.265,13.115,1.874s4.978,10.011,1.874,13.115-8.976,2.265-13.115-1.874S22.427,110.775,25.532,107.671Z"/><ellipse class="c" cx="9" cy="10.5" rx="9" ry="10.5" transform="translate(16 63.98)"/><ellipse class="c" cx="10.599" cy="7.949" rx="10.599" ry="7.949" transform="translate(31.153 102.049) rotate(45)"/><ellipse class="b" cx="5.721" cy="7.628" rx="5.721" ry="7.628" transform="translate(121.742 122.17) rotate(-135)"/><path class="b" d="M186.65,189.366a2.656,2.656,0,1,0-1.881-4.531,2.729,2.729,0,0,0-.768,1.881,2.624,2.624,0,0,0,2.649,2.65Z" transform="translate(-123.058 -123.124)"/><path class="c" d="M104.768,280.736a2.65,2.65,0,1,0,3.763,0A2.777,2.777,0,0,0,104.768,280.736Z" transform="translate(-69.554 -187.262)"/><path class="b" d="M312.768,280.835a2.65,2.65,0,1,0,3.763,0A2.777,2.777,0,0,0,312.768,280.835Z" transform="translate(-208.663 -187.328)"/><path class="b" d="M378.65,149.385a2.661,2.661,0,0,0,1.881-4.531,2.767,2.767,0,0,0-3.736,0,2.643,2.643,0,0,0-.794,1.881,2.78,2.78,0,0,0,.768,1.881A2.735,2.735,0,0,0,378.65,149.385Z" transform="translate(-251.467 -96.392)"/><path class="c" d="M202.65,37.366a2.656,2.656,0,1,0-1.881-4.531A2.679,2.679,0,0,0,200,34.716a2.729,2.729,0,0,0,.768,1.881A2.79,2.79,0,0,0,202.65,37.366Z" transform="translate(-133.758 -21.468)"/><path class="b" d="M168.768,376.835a2.65,2.65,0,1,0,3.763,0A2.777,2.777,0,0,0,168.768,376.835Z" transform="translate(-112.357 -251.532)"/><circle class="b" cx="14.5" cy="14.5" r="14.5" transform="translate(61 84.98)"/><circle class="b" cx="8" cy="8" r="8" transform="translate(95 55.98)"/><ellipse class="b" cx="9.31" cy="12.203" rx="9.31" ry="12.203" transform="matrix(-0.259, -0.966, 0.966, -0.259, 77.07, 148.521)"/><ellipse class="b" cx="9.971" cy="7.478" rx="9.971" ry="7.478" transform="translate(121.232 87.427) rotate(-80.637)"/><path class="c" d="M194.64,105.53A79.833,79.833,0,0,1,210.9,92.085,10.537,10.537,0,0,0,202.6,88q-.274,0-.545.014a10.6,10.6,0,0,0-10.04,10.04q-.013.271-.014.545A10.511,10.511,0,0,0,194.64,105.53Z" transform="translate(-128.408 -58.854)"/><ellipse class="c" cx="6.979" cy="7.976" rx="6.979" ry="7.976" transform="translate(40.152 27.547) rotate(45)"/><path class="c" d="M300.555,60.892a78.965,78.965,0,0,1,14.106-3.268c-3.071-4-7.984-5.486-11.292-3.246A7.145,7.145,0,0,0,300.555,60.892Z" transform="translate(-200.999 -35.668)"/></svg>