<svg xmlns="http://www.w3.org/2000/svg" width="140.317" height="116.95" viewBox="0 0 140.317 116.95"><defs><style>.a{fill:#554e56;}.b{fill:#433f43;}.c{fill:#ff646f;}.d{fill:#ff4755;}.e{fill:#22a7ff;}.f{fill:#0094fd;}.g{fill:#d9edff;}.h{fill:#b4dbff;}.i{fill:#685e68;}.j{fill:#60b8ff;}</style></defs><g transform="translate(140.316 -0.001) rotate(90)"><path class="a" d="M183.931,405.238H159.339a3.415,3.415,0,0,0-3.405,3.405v3.291a3.415,3.415,0,0,0,3.405,3.405h24.592a3.415,3.415,0,0,0,3.405-3.405v-3.291A3.416,3.416,0,0,0,183.931,405.238Zm0,0" transform="translate(-113.198 -294.181)"/><path class="b" d="M183.931,414.491H159.339a3.413,3.413,0,0,1-3.092-1.991,3.375,3.375,0,0,0-.314,1.415v3.291a3.415,3.415,0,0,0,3.405,3.405h24.592a3.415,3.415,0,0,0,3.405-3.405v-3.291a3.376,3.376,0,0,0-.314-1.415A3.415,3.415,0,0,1,183.931,414.491Zm0,0" transform="translate(-113.198 -299.453)"/><path class="c" d="M336.3,270.809l-.9-2.779a59.778,59.778,0,0,0-28.5-34.087l-1.564-.846v42.418c0,.167-.009.331-.025.492h27.134A3.994,3.994,0,0,0,336.3,270.809Zm0,0" transform="translate(-221.636 -169.217)"/><path class="d" d="M313.6,238.16a60.675,60.675,0,0,0-6.7-4.217l-1.564-.846v42.418c0,.167-.009.331-.025.492H313.6Zm0,0" transform="translate(-221.636 -169.217)"/><path class="c" d="M38.633,275.515V233.1l-1.574.846A59.872,59.872,0,0,0,8.375,268.03l-.907,2.779a4,4,0,0,0,3.879,5.2H38.659C38.643,275.846,38.633,275.682,38.633,275.515Zm0,0" transform="translate(-5.279 -169.217)"/><path class="d" d="M15.726,270.809l.907-2.779a59.627,59.627,0,0,1,22-29.915V233.1l-1.574.846A59.872,59.872,0,0,0,8.376,268.03l-.907,2.779a4,4,0,0,0,3.879,5.2H19.6A4,4,0,0,1,15.726,270.809Zm0,0" transform="translate(-5.279 -169.217)"/><path class="e" d="M181.7,450.682v-5.434a4.159,4.159,0,0,0-4.147-4.146H147.6a4.159,4.159,0,0,0-4.147,4.146v5.434Zm0,0" transform="translate(-104.138 -320.216)"/><path class="f" d="M143.515,453.727a4.141,4.141,0,0,0-.062.686v5.434H181.7v-5.434a4.141,4.141,0,0,0-.062-.686Zm0,0" transform="translate(-104.138 -329.381)"/><path class="g" d="M168.356,30.691,154.523,12.178a11.4,11.4,0,0,0-18.827,0L121.862,30.691a12.4,12.4,0,0,0-2.468,7.424v63.309h51.43V38.115A12.4,12.4,0,0,0,168.356,30.691Zm0,0" transform="translate(-86.673 -5.235)"/><path class="h" d="M130.119,30.691l13.833-18.513a12.4,12.4,0,0,1,5.285-4.071A10.984,10.984,0,0,0,135.7,12.178L121.862,30.69a12.409,12.409,0,0,0-2.468,7.425v63.309h8.257V38.115A12.39,12.39,0,0,1,130.119,30.691Zm0,0" transform="translate(-86.673 -5.235)"/><path class="i" d="M228.3,349.984V365.4h16.55a5.032,5.032,0,0,0,5.034-5.033V349.984Zm0,0" transform="translate(-165.733 -254.07)"/><path class="i" d="M124.427,365.4h16.551V349.984H119.395v10.384A5.032,5.032,0,0,0,124.427,365.4Zm0,0" transform="translate(-86.673 -254.07)"/><path class="a" d="M127.65,360.369V349.984h-8.256v10.384a5.032,5.032,0,0,0,5.033,5.033h8.257A5.032,5.032,0,0,1,127.65,360.369Zm0,0" transform="translate(-86.673 -254.07)"/><path class="j" d="M191.965,114.444a12.221,12.221,0,1,1-12.22-12.221A12.221,12.221,0,0,1,191.965,114.444Zm0,0" transform="translate(-121.612 -74.209)"/><path class="e" d="M175.779,114.444a12.226,12.226,0,0,1,8.093-11.5,12.222,12.222,0,1,0,0,23.009A12.224,12.224,0,0,1,175.779,114.444Zm0,0" transform="translate(-121.612 -74.209)"/><path class="c" d="M197.152,236.226V281.4a3.137,3.137,0,0,0,3.128,3.128h2.554a3.137,3.137,0,0,0,3.128-3.128V236.226a3.137,3.137,0,0,0-3.128-3.128H200.28A3.137,3.137,0,0,0,197.152,236.226Zm0,0" transform="translate(-143.121 -169.217)"/><path class="d" d="M203.213,281.4V236.226a3.13,3.13,0,0,1,1.374-2.585,3.111,3.111,0,0,0-1.755-.543h-2.555a3.137,3.137,0,0,0-3.128,3.128V281.4a3.137,3.137,0,0,0,3.128,3.128h2.555a3.111,3.111,0,0,0,1.755-.543A3.13,3.13,0,0,1,203.213,281.4Zm0,0" transform="translate(-143.118 -169.217)"/><path class="j" d="M167.7,474.059H122.523a3.137,3.137,0,0,0-3.128,3.128v2.007a3.137,3.137,0,0,0,3.128,3.128H167.7a3.137,3.137,0,0,0,3.128-3.128v-2.007A3.137,3.137,0,0,0,167.7,474.059Zm0,0" transform="translate(-86.673 -344.141)"/><path class="e" d="M167.7,480.313H122.523a3.129,3.129,0,0,1-2.564-1.345,3.1,3.1,0,0,0-.564,1.782v2.007a3.137,3.137,0,0,0,3.128,3.128H167.7a3.137,3.137,0,0,0,3.128-3.128v-2.007a3.1,3.1,0,0,0-.564-1.782A3.132,3.132,0,0,1,167.7,480.313Zm0,0" transform="translate(-86.673 -347.705)"/><path d="M83.371,24.3,69.537,5.792A14.4,14.4,0,0,0,58.563,0a1.562,1.562,0,0,0-.173,0,14.4,14.4,0,0,0-10.973,5.79L33.582,24.3a14.548,14.548,0,0,0-2.877,8.655V62.744A61.392,61.392,0,0,0,1.181,98.267l-.887,2.779a6.037,6.037,0,0,0,5.754,7.88H31.181a7.1,7.1,0,0,0,6.613,4.54h3.1a5.451,5.451,0,0,0-.176,1.35v2.743a5.442,5.442,0,0,0,.331,1.855,6.211,6.211,0,0,0-3.751,5.7v2.832h-1.41a5.189,5.189,0,0,0-5.184,5.184v2.006a5.189,5.189,0,0,0,5.184,5.184H53.68a2.055,2.055,0,0,0,0-4.111H35.889a1.087,1.087,0,0,1-1.073-1.073v-2.006a1.087,1.087,0,0,1,1.073-1.073H81.064a1.086,1.086,0,0,1,1.072,1.073v2.006a1.086,1.086,0,0,1-1.072,1.073H63.272a2.055,2.055,0,0,0,0,4.111H81.064a5.189,5.189,0,0,0,5.184-5.184v-2.006a5.189,5.189,0,0,0-5.184-5.184h-1.41v-2.832a6.212,6.212,0,0,0-3.752-5.7,5.417,5.417,0,0,0,.332-1.855v-2.743a5.4,5.4,0,0,0-.177-1.35h3.1a7.1,7.1,0,0,0,6.613-4.54H110.9a6.037,6.037,0,0,0,5.755-7.88l-.887-2.779A61.383,61.383,0,0,0,86.246,62.744V32.96A14.54,14.54,0,0,0,83.371,24.3ZM34.817,32.96a10.418,10.418,0,0,1,2.059-6.2L50.71,8.253a10.309,10.309,0,0,1,7.767-4.141,10.312,10.312,0,0,1,7.768,4.141L80.078,26.765a10.418,10.418,0,0,1,2.059,6.2V93.938H64.664V67.089A5.189,5.189,0,0,0,59.481,61.9H57.473a5.189,5.189,0,0,0-5.184,5.185V93.938H34.818C34.817,81.665,34.817,34.014,34.817,32.96Zm25.736,79.3a1.087,1.087,0,0,1-1.073,1.073H57.473a1.087,1.087,0,0,1-1.073-1.073V67.089a1.087,1.087,0,0,1,1.073-1.073h2.006a1.087,1.087,0,0,1,1.073,1.073ZM4.209,102.3,5.1,99.519A57.256,57.256,0,0,1,30.706,67.463v37.352H6.047A1.927,1.927,0,0,1,4.209,102.3Zm30.608,4.082v-8.33H52.29v11.307h-14.5A2.981,2.981,0,0,1,34.817,106.379Zm6.593,21.564v-2.832A2.094,2.094,0,0,1,43.5,123.02H73.451a2.093,2.093,0,0,1,2.092,2.091v2.832Zm30.712-13.126v2.743a1.368,1.368,0,0,1-1.35,1.35H46.18a1.368,1.368,0,0,1-1.35-1.35v-2.743a1.367,1.367,0,0,1,1.35-1.35h6.251a5.208,5.208,0,0,0,5.042,3.979h2.006a5.21,5.21,0,0,0,5.042-3.979h6.251A1.367,1.367,0,0,1,72.122,114.817Zm7.037-5.461h-14.5V98.049H82.136v8.33A2.981,2.981,0,0,1,79.159,109.356Zm32.7-9.837.887,2.779a1.929,1.929,0,0,1-1.838,2.518H86.247V67.463A57.261,57.261,0,0,1,111.856,99.519Zm0,0" transform="translate(0 0)"/><path d="M174.445,123.566a14.188,14.188,0,0,0,12.837-8.026,2.056,2.056,0,0,0-3.7-1.8,10.166,10.166,0,1,1-9.141-14.616,10.21,10.21,0,0,1,9.536,6.637,2.055,2.055,0,0,0,3.855-1.427,14.278,14.278,0,1,0-13.391,19.233Zm0,0" transform="translate(-116.272 -68.974)"/></g></svg>